<svg xmlns="http://www.w3.org/2000/svg" xmlns:xlink="http://www.w3.org/1999/xlink" width="30" zoomAndPan="magnify" viewBox="0 0 375 374.999991" height="30" preserveAspectRatio="xMidYMid meet" version="1.0"><defs><clipPath id="7b34a7841f"><path d="M 0.191406 0.191406 L 375 0.191406 L 375 375 L 0.191406 375 Z M 0.191406 0.191406 " clip-rule="nonzero"/></clipPath></defs><g clip-path="url(#7b34a7841f)"><path fill="#ffd369" d="M 333.429688 271.8125 C 322.660156 290.449219 300.980469 298.847656 281.128906 293.605469 L 232.570312 342.164062 L 226.65625 348.085938 L 220.75 342.179688 C 212.300781 350.71875 200.550781 356.007812 187.59375 356.007812 C 161.816406 356.007812 140.886719 335.089844 140.886719 309.339844 C 140.886719 289.671875 153.054688 272.835938 170.277344 265.972656 L 153.222656 248.917969 L 146.257812 255.867188 L 140.347656 261.789062 L 128.816406 250.246094 C 128.191406 265.738281 119.914062 280.589844 105.515625 288.910156 C 83.1875 301.769531 54.617188 294.128906 41.742188 271.8125 C 28.855469 249.484375 36.480469 220.914062 58.8125 208.039062 C 78.09375 196.910156 102.003906 201.078125 116.480469 216.773438 L 244.957031 88.28125 L 250.882812 82.359375 L 256.804688 88.28125 L 260.421875 91.894531 L 261.144531 92.617188 C 263.6875 90.234375 266.527344 88.101562 269.65625 86.289062 C 291.996094 73.417969 320.53125 81.070312 333.429688 103.386719 C 346.332031 125.714844 338.691406 154.285156 316.363281 167.160156 C 314.976562 167.964844 313.554688 168.695312 312.109375 169.335938 L 324.308594 181.542969 L 337.179688 168.667969 L 343.09375 174.597656 L 348.4375 179.910156 L 354.34375 185.832031 L 356.171875 187.664062 L 362.097656 193.574219 L 365.710938 197.1875 L 371.621094 203.109375 L 338.148438 236.582031 C 341.183594 248.074219 339.851562 260.714844 333.429688 271.8125 Z M 41.742188 103.386719 C 54.617188 81.070312 83.1875 73.417969 105.515625 86.289062 C 127.832031 99.207031 135.472656 127.734375 122.613281 150.066406 C 109.699219 172.421875 81.167969 180.0625 58.8125 167.160156 C 36.480469 154.285156 28.855469 125.714844 41.742188 103.386719 Z M 187.59375 19.191406 C 213.371094 19.191406 234.285156 40.070312 234.285156 65.855469 C 234.285156 91.632812 213.371094 112.5625 187.59375 112.5625 C 161.816406 112.5625 140.886719 91.632812 140.886719 65.855469 C 140.886719 40.070312 161.816406 19.191406 187.59375 19.191406 Z M 187.59375 0.199219 C 84.101562 0.199219 0.199219 84.101562 0.199219 187.59375 C 0.199219 291.085938 84.101562 374.984375 187.59375 374.984375 C 291.070312 374.984375 374.984375 291.085938 374.984375 187.59375 C 374.984375 84.101562 291.070312 0.199219 187.59375 0.199219 " fill-opacity="1" fill-rule="nonzero"/></g><path fill="#ffd369" d="M 340.597656 215.070312 L 333.789062 221.894531 C 333.488281 222.199219 333.097656 222.339844 332.695312 222.339844 C 332.292969 222.339844 331.878906 222.1875 331.574219 221.871094 L 330.964844 221.246094 L 320.222656 210.53125 L 320.128906 210.433594 C 319.503906 209.808594 319.503906 208.828125 320.109375 208.21875 L 326.933594 201.410156 C 327.242188 201.105469 327.628906 200.953125 328.03125 200.953125 C 328.429688 200.953125 328.832031 201.105469 329.136719 201.421875 L 340.589844 212.855469 C 341.183594 213.480469 341.210938 214.464844 340.597656 215.070312 Z M 321.566406 234.105469 L 314.742188 240.929688 C 314.449219 241.234375 314.050781 241.359375 313.660156 241.359375 C 313.261719 241.359375 312.84375 241.203125 312.539062 240.902344 L 301.089844 229.46875 C 300.484375 228.847656 300.484375 227.863281 301.078125 227.265625 L 307.902344 220.441406 C 308.207031 220.136719 308.59375 219.984375 308.996094 219.984375 C 309.398438 219.984375 309.796875 220.136719 310.105469 220.457031 L 321.550781 231.890625 C 322.148438 232.511719 322.175781 233.496094 321.566406 234.105469 Z M 302.53125 253.125 L 295.707031 259.964844 C 295.414062 260.269531 295.011719 260.40625 294.640625 260.40625 C 294.238281 260.40625 293.8125 260.242188 293.492188 259.949219 L 282.058594 248.488281 C 281.449219 247.882812 281.449219 246.914062 282.042969 246.300781 L 288.882812 239.476562 C 289.175781 239.171875 289.558594 239.019531 289.949219 239.019531 C 290.351562 239.019531 290.75 239.1875 291.070312 239.488281 L 302.503906 250.9375 C 303.128906 251.550781 303.140625 252.53125 302.53125 253.125 Z M 283.5 272.164062 L 276.671875 279 C 276.398438 279.289062 275.980469 279.441406 275.605469 279.441406 C 275.175781 279.441406 274.773438 279.277344 274.457031 278.972656 L 263.039062 267.523438 C 262.417969 266.914062 262.417969 265.929688 263.011719 265.335938 L 269.847656 258.511719 C 270.152344 258.203125 270.527344 258.054688 270.914062 258.054688 C 271.316406 258.054688 271.714844 258.21875 272.035156 258.527344 L 283.472656 269.972656 C 284.09375 270.566406 284.105469 271.578125 283.5 272.164062 Z M 264.476562 291.207031 L 257.636719 298.019531 C 257.332031 298.324219 256.960938 298.472656 256.574219 298.472656 C 256.160156 298.472656 255.757812 298.324219 255.433594 298.003906 L 244.003906 286.558594 C 243.378906 285.933594 243.378906 284.964844 243.988281 284.371094 L 250.8125 277.53125 C 251.089844 277.242188 251.492188 277.101562 251.878906 277.101562 C 252.28125 277.101562 252.683594 277.253906 253 277.570312 L 264.433594 289.003906 C 265.058594 289.617188 265.074219 290.613281 264.476562 291.207031 Z M 245.445312 310.242188 L 238.605469 317.082031 C 238.316406 317.359375 237.925781 317.511719 237.523438 317.511719 C 237.121094 317.511719 236.71875 317.359375 236.402344 317.042969 L 224.96875 305.605469 C 224.34375 304.996094 224.34375 304 224.957031 303.40625 L 231.78125 296.566406 C 231.945312 296.398438 232.167969 296.277344 232.402344 296.21875 C 232.554688 296.152344 232.710938 296.132812 232.847656 296.132812 C 233.25 296.132812 233.648438 296.289062 233.96875 296.605469 L 245.402344 308.042969 C 246.023438 308.648438 246.039062 309.644531 245.445312 310.242188 Z M 217.675781 290.210938 L 190.167969 262.71875 L 163.769531 236.320312 C 161.070312 233.609375 161.070312 229.234375 163.769531 226.519531 L 178.566406 211.722656 L 211.722656 178.582031 L 250.054688 140.25 C 251.410156 138.890625 253.195312 138.210938 254.964844 138.210938 C 256.738281 138.210938 258.511719 138.890625 259.867188 140.25 L 293.046875 173.429688 L 293.066406 173.429688 L 313.746094 194.128906 C 316.457031 196.839844 316.457031 201.242188 313.746094 203.941406 L 227.476562 290.210938 C 226.117188 291.570312 224.34375 292.246094 222.574219 292.246094 C 220.800781 292.246094 219.027344 291.570312 217.675781 290.210938 Z M 155.988281 198.542969 C 155.367188 197.945312 155.367188 196.949219 155.976562 196.355469 L 161.984375 190.347656 L 162.800781 189.519531 C 163.078125 189.222656 163.476562 189.085938 163.867188 189.085938 C 164.269531 189.085938 164.667969 189.242188 164.988281 189.558594 L 176.421875 200.992188 C 177.046875 201.617188 177.058594 202.601562 176.460938 203.195312 L 171.742188 207.902344 L 169.625 210.019531 C 169.335938 210.308594 168.945312 210.460938 168.558594 210.460938 C 168.144531 210.460938 167.742188 210.308594 167.421875 209.992188 Z M 157.429688 222.226562 L 150.589844 229.066406 C 150.300781 229.34375 149.910156 229.496094 149.511719 229.496094 C 149.109375 229.496094 148.707031 229.34375 148.390625 229.023438 L 136.957031 217.589844 C 136.332031 216.984375 136.332031 215.984375 136.914062 215.390625 L 143.765625 208.550781 C 144.058594 208.273438 144.429688 208.121094 144.832031 208.121094 C 145.234375 208.121094 145.636719 208.273438 145.953125 208.59375 L 157.386719 220.023438 C 158.011719 220.636719 158.023438 221.632812 157.429688 222.226562 Z M 174.996094 177.320312 L 181.835938 170.496094 C 182.109375 170.191406 182.511719 170.039062 182.902344 170.039062 C 183.300781 170.039062 183.703125 170.207031 184.023438 170.507812 L 195.457031 181.957031 C 196.078125 182.554688 196.09375 183.566406 195.480469 184.144531 L 188.65625 190.984375 C 188.382812 191.273438 187.980469 191.425781 187.59375 191.425781 C 187.179688 191.425781 186.761719 191.261719 186.457031 190.957031 L 175.023438 179.507812 C 174.402344 178.910156 174.402344 177.917969 174.996094 177.320312 Z M 194.03125 158.285156 L 200.867188 151.464844 C 201.160156 151.15625 201.546875 151.003906 201.933594 151.003906 C 202.335938 151.003906 202.734375 151.171875 203.058594 151.476562 L 214.492188 162.925781 C 215.113281 163.53125 215.128906 164.515625 214.519531 165.109375 L 207.886719 171.742188 L 207.691406 171.949219 C 207.402344 172.257812 207 172.394531 206.625 172.394531 C 206.222656 172.394531 205.800781 172.230469 205.476562 171.90625 L 194.042969 160.488281 C 193.4375 159.867188 193.4375 158.894531 194.03125 158.285156 Z M 213.0625 139.253906 L 219.890625 132.429688 C 220.195312 132.125 220.578125 131.972656 220.980469 131.972656 C 221.382812 131.972656 221.785156 132.125 222.089844 132.441406 L 233.539062 143.875 C 234.132812 144.5 234.160156 145.484375 233.554688 146.089844 L 226.730469 152.914062 C 226.433594 153.21875 226.03125 153.34375 225.648438 153.34375 C 225.246094 153.34375 224.832031 153.195312 224.515625 152.890625 L 213.078125 141.453125 C 212.46875 140.828125 212.46875 139.847656 213.0625 139.253906 Z M 232.097656 120.203125 L 238.921875 113.394531 C 239.226562 113.089844 239.613281 112.9375 240.015625 112.9375 C 240.417969 112.9375 240.820312 113.089844 241.125 113.410156 L 246.953125 119.222656 L 252.570312 124.84375 C 253.171875 125.464844 253.195312 126.449219 252.585938 127.058594 L 246.742188 132.914062 L 245.773438 133.882812 C 245.46875 134.1875 245.082031 134.328125 244.683594 134.328125 C 244.28125 134.328125 243.867188 134.171875 243.5625 133.851562 L 232.113281 122.417969 C 231.515625 121.796875 231.488281 120.816406 232.097656 120.203125 Z M 356.171875 199.496094 L 352.824219 202.859375 C 352.519531 203.152344 352.128906 203.304688 351.726562 203.304688 C 351.332031 203.304688 350.910156 203.152344 350.609375 202.832031 L 339.160156 191.398438 C 338.539062 190.777344 338.566406 189.796875 339.144531 189.183594 L 342.507812 185.832031 L 337.179688 180.503906 L 329.207031 188.476562 C 327.863281 189.835938 326.09375 190.515625 324.308594 190.515625 C 322.535156 190.515625 320.761719 189.835938 319.40625 188.476562 L 265.515625 134.589844 C 262.816406 131.875 262.816406 127.488281 265.515625 124.804688 L 273.488281 116.8125 L 268.160156 111.484375 L 264.808594 114.847656 C 264.507812 115.136719 264.117188 115.289062 263.714844 115.289062 C 263.3125 115.289062 262.898438 115.136719 262.59375 114.820312 L 252.074219 104.296875 L 251.148438 103.386719 C 250.554688 102.761719 250.554688 101.777344 251.132812 101.171875 L 254.496094 97.835938 L 250.882812 94.207031 L 182.804688 162.285156 L 162.273438 182.789062 L 117.742188 227.335938 L 121.367188 230.949219 L 124.71875 227.601562 C 125.023438 227.308594 125.410156 227.15625 125.8125 227.15625 C 126.210938 227.15625 126.613281 227.308594 126.90625 227.628906 L 138.355469 239.046875 C 138.976562 239.667969 138.988281 240.664062 138.394531 241.261719 L 135.03125 244.625 L 140.347656 249.957031 L 148.320312 241.96875 C 149.675781 240.625 151.449219 239.945312 153.222656 239.945312 C 154.992188 239.945312 156.777344 240.625 158.132812 241.96875 L 179.507812 263.339844 L 212.027344 295.875 C 214.726562 298.574219 214.726562 302.964844 212.027344 305.675781 L 204.039062 313.648438 L 209.382812 318.960938 L 212.730469 315.613281 C 213.035156 315.320312 213.421875 315.171875 213.824219 315.171875 C 214.226562 315.171875 214.628906 315.320312 214.917969 315.644531 L 226.367188 327.0625 C 226.992188 327.683594 227.007812 328.679688 226.40625 329.273438 L 223.042969 332.644531 L 226.65625 336.253906 L 272.492188 290.40625 L 334.964844 227.945312 L 359.785156 203.109375 L 356.171875 199.496094 " fill-opacity="1" fill-rule="nonzero"/></svg>